<!DOCTYPE svg PUBLIC "-//W3C//DTD SVG 1.1//EN" "http://www.w3.org/Graphics/SVG/1.1/DTD/svg11.dtd">
<!-- Uploaded to: SVG Repo, www.svgrepo.com, Transformed by: SVG Repo Mixer Tools -->
<svg fill="#ffffff" width="800px" height="800px" viewBox="-51.2 -51.2 614.40 614.40" version="1.1" xml:space="preserve" xmlns="http://www.w3.org/2000/svg" xmlns:xlink="http://www.w3.org/1999/xlink" stroke="#ffffff">
<g id="SVGRepo_bgCarrier" stroke-width="0">
<path transform="translate(-51.2, -51.2), scale(38.4)" fill="#2d4952" d="M9.166.33a2.25 2.25 0 00-2.332 0l-5.25 3.182A2.25 2.25 0 00.5 5.436v5.128a2.25 2.25 0 001.084 1.924l5.25 3.182a2.25 2.25 0 002.332 0l5.25-3.182a2.25 2.25 0 001.084-1.924V5.436a2.25 2.25 0 00-1.084-1.924L9.166.33z" strokewidth="0"/>
</g>
<g id="SVGRepo_tracerCarrier" stroke-linecap="round" stroke-linejoin="round"/>
<g id="SVGRepo_iconCarrier"> <g id="candles-holder-heart-love-valentine"> <path d="M112,248c-13.255,0-24-10.745-24-24c0-4.418,3.582-8,8-8h8v-48c0-4.418,3.582-8,8-8h32c4.418,0,8,3.582,8,8v48h8 c4.418,0,8,3.582,8,8c0,13.255-10.745,24-24,24H112z M240,224h32c13.255,0,24-10.745,24-24c0-4.418-3.582-8-8-8h-8v-48 c0-4.418-3.582-8-8-8h-32c-4.418,0-8,3.582-8,8v48h-8c-4.418,0-8,3.582-8,8C216,213.255,226.745,224,240,224z M416,216h-8v-48 c0-4.418-3.582-8-8-8h-32c-4.418,0-8,3.582-8,8v48h-8c-4.418,0-8,3.582-8,8c0,13.255,10.745,24,24,24h32c13.255,0,24-10.745,24-24 C424,219.582,420.418,216,416,216z M122.272,149c3.14,3.22,8.315,3.22,11.455,0l19.952-20.46 c7.017-7.196,8.387-18.749,2.104-26.594c-7.145-8.922-20.021-9.402-27.784-1.442c-7.763-7.96-20.64-7.479-27.784,1.442 c-6.283,7.845-4.913,19.398,2.104,26.594L122.272,149z M250.272,125c3.14,3.22,8.315,3.22,11.455,0l19.952-20.46 c7.017-7.196,8.387-18.749,2.104-26.594c-7.145-8.922-20.021-9.402-27.784-1.442c-7.763-7.96-20.64-7.479-27.784,1.442 c-6.283,7.845-4.913,19.398,2.104,26.594L250.272,125z M378.272,149c3.14,3.22,8.315,3.22,11.455,0l19.952-20.46 c7.017-7.196,8.387-18.749,2.104-26.594c-7.145-8.922-20.021-9.402-27.784-1.442c-7.763-7.96-20.64-7.479-27.784,1.442 c-6.283,7.845-4.913,19.398,2.104,26.594L378.272,149z M368,264h32c0,44.08-35.92,80-80,80h-29.137l-15.513,15.948 c-1.034,1.064-2.182,1.968-3.351,2.833V408h64c4.418,0,8,3.582,8,8c0,13.255-10.745,24-24,24H192c-13.255,0-24-10.745-24-24 c0-4.418,3.582-8,8-8h64v-45.658c-0.861-0.67-1.753-1.292-2.539-2.075L221.094,344H192c-44.08,0-80-35.92-80-80h32 c0,26.48,21.52,48,48,48h2.736c-4.88-13.079-3.4-27.969,5.21-39.38c8.753-11.59,23.432-18.63,40.054-15.537V240h32v16.632 c16.252-2.922,30.614,3.839,39.38,15.047c9.033,11.559,10.653,26.915,5.522,40.321H320C346.48,312,368,290.48,368,264z M296.103,315.669c9.279-9.54,10.429-24.214,2.673-34.133c-9.675-12.386-27.127-12.717-37.364-2.177 c-2.974,3.072-8.349,3.117-11.375,0.096c-10.362-10.307-27.827-9.78-37.321,2.808c-7.587,10.049-6.19,24.702,3.249,34.083 l32.776,32.576c4.082,4.06,11.128,4,15.14-0.128L296.103,315.669z"/> </g> <g id="Layer_1"/> </g>
</svg>